<svg xmlns="http://www.w3.org/2000/svg" width="512" height="512" viewBox="0 0 305 305"><style>.a{fill:#91DC5A;}</style><path d="M152.5 0C68.4 0 0 68.4 0 152.5s68.4 152.5 152.5 152.5c84.1 0 152.5-68.4 152.5-152.5S236.6 0 152.5 0zM152.5 280C82.2 280 25 222.8 25 152.5c0-70.3 57.2-127.5 127.5-127.5 70.3 0 127.5 57.2 127.5 127.5C280 222.8 222.8 280 152.5 280z" class="a"/><path d="M218.5 94l-90.5 90.5 -41.4-41.4c-4.9-4.9-12.8-4.9-17.7 0 -4.9 4.9-4.9 12.8 0 17.7l50.2 50.2c2.4 2.4 5.6 3.7 8.8 3.7 3.2 0 6.4-1.2 8.8-3.7l99.4-99.4c4.9-4.9 4.9-12.8 0-17.7C231.3 89.1 223.4 89.1 218.5 94z" class="a"/></svg>